<svg xmlns="http://www.w3.org/2000/svg" width="608" height="56" viewBox="0 0 608 56" shape-rendering="crispEdges">
<rect x="4" y="4" width="8" height="8" fill="#7B2FBE"/>
<rect x="12" y="4" width="8" height="8" fill="#7B2FBE"/>
<rect x="20" y="4" width="8" height="8" fill="#7B2FBE"/>
<rect x="28" y="4" width="8" height="8" fill="#7B2FBE"/>
<rect x="36" y="4" width="8" height="8" fill="#7B2FBE"/>
<rect x="52" y="4" width="8" height="8" fill="#7B2FBE"/>
<rect x="60" y="4" width="8" height="8" fill="#7B2FBE"/>
<rect x="68" y="4" width="8" height="8" fill="#7B2FBE"/>
<rect x="76" y="4" width="8" height="8" fill="#7B2FBE"/>
<rect x="84" y="4" width="8" height="8" fill="#7B2FBE"/>
<rect x="100" y="4" width="8" height="8" fill="#7B2FBE"/>
<rect x="132" y="4" width="8" height="8" fill="#7B2FBE"/>
<rect x="156" y="4" width="8" height="8" fill="#7B2FBE"/>
<rect x="164" y="4" width="8" height="8" fill="#7B2FBE"/>
<rect x="172" y="4" width="8" height="8" fill="#7B2FBE"/>
<rect x="204" y="4" width="8" height="8" fill="#7B2FBE"/>
<rect x="212" y="4" width="8" height="8" fill="#7B2FBE"/>
<rect x="220" y="4" width="8" height="8" fill="#7B2FBE"/>
<rect x="244" y="4" width="8" height="8" fill="#7B2FBE"/>
<rect x="252" y="4" width="8" height="8" fill="#7B2FBE"/>
<rect x="260" y="4" width="8" height="8" fill="#7B2FBE"/>
<rect x="268" y="4" width="8" height="8" fill="#7B2FBE"/>
<rect x="332" y="4" width="8" height="8" fill="#7B2FBE"/>
<rect x="340" y="4" width="8" height="8" fill="#7B2FBE"/>
<rect x="348" y="4" width="8" height="8" fill="#7B2FBE"/>
<rect x="372" y="4" width="8" height="8" fill="#7B2FBE"/>
<rect x="380" y="4" width="8" height="8" fill="#7B2FBE"/>
<rect x="388" y="4" width="8" height="8" fill="#7B2FBE"/>
<rect x="396" y="4" width="8" height="8" fill="#7B2FBE"/>
<rect x="404" y="4" width="8" height="8" fill="#7B2FBE"/>
<rect x="420" y="4" width="8" height="8" fill="#7B2FBE"/>
<rect x="452" y="4" width="8" height="8" fill="#7B2FBE"/>
<rect x="476" y="4" width="8" height="8" fill="#7B2FBE"/>
<rect x="484" y="4" width="8" height="8" fill="#7B2FBE"/>
<rect x="492" y="4" width="8" height="8" fill="#7B2FBE"/>
<rect x="516" y="4" width="8" height="8" fill="#7B2FBE"/>
<rect x="524" y="4" width="8" height="8" fill="#7B2FBE"/>
<rect x="532" y="4" width="8" height="8" fill="#7B2FBE"/>
<rect x="540" y="4" width="8" height="8" fill="#7B2FBE"/>
<rect x="564" y="4" width="8" height="8" fill="#7B2FBE"/>
<rect x="572" y="4" width="8" height="8" fill="#7B2FBE"/>
<rect x="580" y="4" width="8" height="8" fill="#7B2FBE"/>
<rect x="588" y="4" width="8" height="8" fill="#7B2FBE"/>
<rect x="596" y="4" width="8" height="8" fill="#7B2FBE"/>
<rect x="36" y="12" width="8" height="8" fill="#7B2FBE"/>
<rect x="68" y="12" width="8" height="8" fill="#7B2FBE"/>
<rect x="100" y="12" width="8" height="8" fill="#7B2FBE"/>
<rect x="108" y="12" width="8" height="8" fill="#7B2FBE"/>
<rect x="124" y="12" width="8" height="8" fill="#7B2FBE"/>
<rect x="132" y="12" width="8" height="8" fill="#7B2FBE"/>
<rect x="148" y="12" width="8" height="8" fill="#7B2FBE"/>
<rect x="180" y="12" width="8" height="8" fill="#7B2FBE"/>
<rect x="196" y="12" width="8" height="8" fill="#7B2FBE"/>
<rect x="228" y="12" width="8" height="8" fill="#7B2FBE"/>
<rect x="244" y="12" width="8" height="8" fill="#7B2FBE"/>
<rect x="276" y="12" width="8" height="8" fill="#7B2FBE"/>
<rect x="324" y="12" width="8" height="8" fill="#7B2FBE"/>
<rect x="356" y="12" width="8" height="8" fill="#7B2FBE"/>
<rect x="404" y="12" width="8" height="8" fill="#7B2FBE"/>
<rect x="420" y="12" width="8" height="8" fill="#7B2FBE"/>
<rect x="452" y="12" width="8" height="8" fill="#7B2FBE"/>
<rect x="468" y="12" width="8" height="8" fill="#7B2FBE"/>
<rect x="500" y="12" width="8" height="8" fill="#7B2FBE"/>
<rect x="516" y="12" width="8" height="8" fill="#7B2FBE"/>
<rect x="548" y="12" width="8" height="8" fill="#7B2FBE"/>
<rect x="580" y="12" width="8" height="8" fill="#7B2FBE"/>
<rect x="28" y="20" width="8" height="8" fill="#7B2FBE"/>
<rect x="68" y="20" width="8" height="8" fill="#7B2FBE"/>
<rect x="100" y="20" width="8" height="8" fill="#7B2FBE"/>
<rect x="116" y="20" width="8" height="8" fill="#7B2FBE"/>
<rect x="132" y="20" width="8" height="8" fill="#7B2FBE"/>
<rect x="148" y="20" width="8" height="8" fill="#7B2FBE"/>
<rect x="180" y="20" width="8" height="8" fill="#7B2FBE"/>
<rect x="196" y="20" width="8" height="8" fill="#7B2FBE"/>
<rect x="228" y="20" width="8" height="8" fill="#7B2FBE"/>
<rect x="244" y="20" width="8" height="8" fill="#7B2FBE"/>
<rect x="276" y="20" width="8" height="8" fill="#7B2FBE"/>
<rect x="324" y="20" width="8" height="8" fill="#7B2FBE"/>
<rect x="356" y="20" width="8" height="8" fill="#7B2FBE"/>
<rect x="396" y="20" width="8" height="8" fill="#7B2FBE"/>
<rect x="420" y="20" width="8" height="8" fill="#7B2FBE"/>
<rect x="452" y="20" width="8" height="8" fill="#7B2FBE"/>
<rect x="468" y="20" width="8" height="8" fill="#7B2FBE"/>
<rect x="500" y="20" width="8" height="8" fill="#7B2FBE"/>
<rect x="516" y="20" width="8" height="8" fill="#7B2FBE"/>
<rect x="548" y="20" width="8" height="8" fill="#7B2FBE"/>
<rect x="580" y="20" width="8" height="8" fill="#7B2FBE"/>
<rect x="20" y="28" width="8" height="8" fill="#7B2FBE"/>
<rect x="68" y="28" width="8" height="8" fill="#7B2FBE"/>
<rect x="100" y="28" width="8" height="8" fill="#7B2FBE"/>
<rect x="116" y="28" width="8" height="8" fill="#7B2FBE"/>
<rect x="132" y="28" width="8" height="8" fill="#7B2FBE"/>
<rect x="148" y="28" width="8" height="8" fill="#7B2FBE"/>
<rect x="156" y="28" width="8" height="8" fill="#7B2FBE"/>
<rect x="164" y="28" width="8" height="8" fill="#7B2FBE"/>
<rect x="172" y="28" width="8" height="8" fill="#7B2FBE"/>
<rect x="180" y="28" width="8" height="8" fill="#7B2FBE"/>
<rect x="196" y="28" width="8" height="8" fill="#7B2FBE"/>
<rect x="204" y="28" width="8" height="8" fill="#7B2FBE"/>
<rect x="212" y="28" width="8" height="8" fill="#7B2FBE"/>
<rect x="220" y="28" width="8" height="8" fill="#7B2FBE"/>
<rect x="228" y="28" width="8" height="8" fill="#7B2FBE"/>
<rect x="244" y="28" width="8" height="8" fill="#7B2FBE"/>
<rect x="276" y="28" width="8" height="8" fill="#7B2FBE"/>
<rect x="324" y="28" width="8" height="8" fill="#7B2FBE"/>
<rect x="332" y="28" width="8" height="8" fill="#7B2FBE"/>
<rect x="340" y="28" width="8" height="8" fill="#7B2FBE"/>
<rect x="348" y="28" width="8" height="8" fill="#7B2FBE"/>
<rect x="356" y="28" width="8" height="8" fill="#7B2FBE"/>
<rect x="388" y="28" width="8" height="8" fill="#7B2FBE"/>
<rect x="420" y="28" width="8" height="8" fill="#7B2FBE"/>
<rect x="428" y="28" width="8" height="8" fill="#7B2FBE"/>
<rect x="436" y="28" width="8" height="8" fill="#7B2FBE"/>
<rect x="444" y="28" width="8" height="8" fill="#7B2FBE"/>
<rect x="452" y="28" width="8" height="8" fill="#7B2FBE"/>
<rect x="468" y="28" width="8" height="8" fill="#7B2FBE"/>
<rect x="476" y="28" width="8" height="8" fill="#7B2FBE"/>
<rect x="484" y="28" width="8" height="8" fill="#7B2FBE"/>
<rect x="492" y="28" width="8" height="8" fill="#7B2FBE"/>
<rect x="500" y="28" width="8" height="8" fill="#7B2FBE"/>
<rect x="516" y="28" width="8" height="8" fill="#7B2FBE"/>
<rect x="524" y="28" width="8" height="8" fill="#7B2FBE"/>
<rect x="532" y="28" width="8" height="8" fill="#7B2FBE"/>
<rect x="540" y="28" width="8" height="8" fill="#7B2FBE"/>
<rect x="580" y="28" width="8" height="8" fill="#7B2FBE"/>
<rect x="12" y="36" width="8" height="8" fill="#7B2FBE"/>
<rect x="68" y="36" width="8" height="8" fill="#7B2FBE"/>
<rect x="100" y="36" width="8" height="8" fill="#7B2FBE"/>
<rect x="132" y="36" width="8" height="8" fill="#7B2FBE"/>
<rect x="148" y="36" width="8" height="8" fill="#7B2FBE"/>
<rect x="180" y="36" width="8" height="8" fill="#7B2FBE"/>
<rect x="196" y="36" width="8" height="8" fill="#7B2FBE"/>
<rect x="228" y="36" width="8" height="8" fill="#7B2FBE"/>
<rect x="244" y="36" width="8" height="8" fill="#7B2FBE"/>
<rect x="276" y="36" width="8" height="8" fill="#7B2FBE"/>
<rect x="324" y="36" width="8" height="8" fill="#7B2FBE"/>
<rect x="356" y="36" width="8" height="8" fill="#7B2FBE"/>
<rect x="380" y="36" width="8" height="8" fill="#7B2FBE"/>
<rect x="420" y="36" width="8" height="8" fill="#7B2FBE"/>
<rect x="452" y="36" width="8" height="8" fill="#7B2FBE"/>
<rect x="468" y="36" width="8" height="8" fill="#7B2FBE"/>
<rect x="500" y="36" width="8" height="8" fill="#7B2FBE"/>
<rect x="516" y="36" width="8" height="8" fill="#7B2FBE"/>
<rect x="532" y="36" width="8" height="8" fill="#7B2FBE"/>
<rect x="580" y="36" width="8" height="8" fill="#7B2FBE"/>
<rect x="4" y="44" width="8" height="8" fill="#7B2FBE"/>
<rect x="68" y="44" width="8" height="8" fill="#7B2FBE"/>
<rect x="100" y="44" width="8" height="8" fill="#7B2FBE"/>
<rect x="132" y="44" width="8" height="8" fill="#7B2FBE"/>
<rect x="148" y="44" width="8" height="8" fill="#7B2FBE"/>
<rect x="180" y="44" width="8" height="8" fill="#7B2FBE"/>
<rect x="196" y="44" width="8" height="8" fill="#7B2FBE"/>
<rect x="228" y="44" width="8" height="8" fill="#7B2FBE"/>
<rect x="244" y="44" width="8" height="8" fill="#7B2FBE"/>
<rect x="276" y="44" width="8" height="8" fill="#7B2FBE"/>
<rect x="324" y="44" width="8" height="8" fill="#7B2FBE"/>
<rect x="356" y="44" width="8" height="8" fill="#7B2FBE"/>
<rect x="372" y="44" width="8" height="8" fill="#7B2FBE"/>
<rect x="420" y="44" width="8" height="8" fill="#7B2FBE"/>
<rect x="452" y="44" width="8" height="8" fill="#7B2FBE"/>
<rect x="468" y="44" width="8" height="8" fill="#7B2FBE"/>
<rect x="500" y="44" width="8" height="8" fill="#7B2FBE"/>
<rect x="516" y="44" width="8" height="8" fill="#7B2FBE"/>
<rect x="540" y="44" width="8" height="8" fill="#7B2FBE"/>
<rect x="580" y="44" width="8" height="8" fill="#7B2FBE"/>
<rect x="4" y="52" width="8" height="8" fill="#7B2FBE"/>
<rect x="12" y="52" width="8" height="8" fill="#7B2FBE"/>
<rect x="20" y="52" width="8" height="8" fill="#7B2FBE"/>
<rect x="28" y="52" width="8" height="8" fill="#7B2FBE"/>
<rect x="36" y="52" width="8" height="8" fill="#7B2FBE"/>
<rect x="52" y="52" width="8" height="8" fill="#7B2FBE"/>
<rect x="60" y="52" width="8" height="8" fill="#7B2FBE"/>
<rect x="68" y="52" width="8" height="8" fill="#7B2FBE"/>
<rect x="76" y="52" width="8" height="8" fill="#7B2FBE"/>
<rect x="84" y="52" width="8" height="8" fill="#7B2FBE"/>
<rect x="100" y="52" width="8" height="8" fill="#7B2FBE"/>
<rect x="132" y="52" width="8" height="8" fill="#7B2FBE"/>
<rect x="148" y="52" width="8" height="8" fill="#7B2FBE"/>
<rect x="180" y="52" width="8" height="8" fill="#7B2FBE"/>
<rect x="196" y="52" width="8" height="8" fill="#7B2FBE"/>
<rect x="228" y="52" width="8" height="8" fill="#7B2FBE"/>
<rect x="244" y="52" width="8" height="8" fill="#7B2FBE"/>
<rect x="252" y="52" width="8" height="8" fill="#7B2FBE"/>
<rect x="260" y="52" width="8" height="8" fill="#7B2FBE"/>
<rect x="268" y="52" width="8" height="8" fill="#7B2FBE"/>
<rect x="324" y="52" width="8" height="8" fill="#7B2FBE"/>
<rect x="356" y="52" width="8" height="8" fill="#7B2FBE"/>
<rect x="372" y="52" width="8" height="8" fill="#7B2FBE"/>
<rect x="380" y="52" width="8" height="8" fill="#7B2FBE"/>
<rect x="388" y="52" width="8" height="8" fill="#7B2FBE"/>
<rect x="396" y="52" width="8" height="8" fill="#7B2FBE"/>
<rect x="404" y="52" width="8" height="8" fill="#7B2FBE"/>
<rect x="420" y="52" width="8" height="8" fill="#7B2FBE"/>
<rect x="452" y="52" width="8" height="8" fill="#7B2FBE"/>
<rect x="468" y="52" width="8" height="8" fill="#7B2FBE"/>
<rect x="500" y="52" width="8" height="8" fill="#7B2FBE"/>
<rect x="516" y="52" width="8" height="8" fill="#7B2FBE"/>
<rect x="548" y="52" width="8" height="8" fill="#7B2FBE"/>
<rect x="564" y="52" width="8" height="8" fill="#7B2FBE"/>
<rect x="572" y="52" width="8" height="8" fill="#7B2FBE"/>
<rect x="580" y="52" width="8" height="8" fill="#7B2FBE"/>
<rect x="588" y="52" width="8" height="8" fill="#7B2FBE"/>
<rect x="596" y="52" width="8" height="8" fill="#7B2FBE"/>
<rect x="0" y="0" width="8" height="8" fill="#e6dcff"/>
<rect x="8" y="0" width="8" height="8" fill="#e6dcff"/>
<rect x="16" y="0" width="8" height="8" fill="#e6dcff"/>
<rect x="24" y="0" width="8" height="8" fill="#e6dcff"/>
<rect x="32" y="0" width="8" height="8" fill="#e6dcff"/>
<rect x="48" y="0" width="8" height="8" fill="#e6dcff"/>
<rect x="56" y="0" width="8" height="8" fill="#e6dcff"/>
<rect x="64" y="0" width="8" height="8" fill="#e6dcff"/>
<rect x="72" y="0" width="8" height="8" fill="#e6dcff"/>
<rect x="80" y="0" width="8" height="8" fill="#e6dcff"/>
<rect x="96" y="0" width="8" height="8" fill="#e6dcff"/>
<rect x="128" y="0" width="8" height="8" fill="#e6dcff"/>
<rect x="152" y="0" width="8" height="8" fill="#e6dcff"/>
<rect x="160" y="0" width="8" height="8" fill="#e6dcff"/>
<rect x="168" y="0" width="8" height="8" fill="#e6dcff"/>
<rect x="200" y="0" width="8" height="8" fill="#e6dcff"/>
<rect x="208" y="0" width="8" height="8" fill="#e6dcff"/>
<rect x="216" y="0" width="8" height="8" fill="#e6dcff"/>
<rect x="240" y="0" width="8" height="8" fill="#e6dcff"/>
<rect x="248" y="0" width="8" height="8" fill="#e6dcff"/>
<rect x="256" y="0" width="8" height="8" fill="#e6dcff"/>
<rect x="264" y="0" width="8" height="8" fill="#e6dcff"/>
<rect x="328" y="0" width="8" height="8" fill="#e6dcff"/>
<rect x="336" y="0" width="8" height="8" fill="#e6dcff"/>
<rect x="344" y="0" width="8" height="8" fill="#e6dcff"/>
<rect x="368" y="0" width="8" height="8" fill="#e6dcff"/>
<rect x="376" y="0" width="8" height="8" fill="#e6dcff"/>
<rect x="384" y="0" width="8" height="8" fill="#e6dcff"/>
<rect x="392" y="0" width="8" height="8" fill="#e6dcff"/>
<rect x="400" y="0" width="8" height="8" fill="#e6dcff"/>
<rect x="416" y="0" width="8" height="8" fill="#e6dcff"/>
<rect x="448" y="0" width="8" height="8" fill="#e6dcff"/>
<rect x="472" y="0" width="8" height="8" fill="#e6dcff"/>
<rect x="480" y="0" width="8" height="8" fill="#e6dcff"/>
<rect x="488" y="0" width="8" height="8" fill="#e6dcff"/>
<rect x="512" y="0" width="8" height="8" fill="#e6dcff"/>
<rect x="520" y="0" width="8" height="8" fill="#e6dcff"/>
<rect x="528" y="0" width="8" height="8" fill="#e6dcff"/>
<rect x="536" y="0" width="8" height="8" fill="#e6dcff"/>
<rect x="560" y="0" width="8" height="8" fill="#e6dcff"/>
<rect x="568" y="0" width="8" height="8" fill="#e6dcff"/>
<rect x="576" y="0" width="8" height="8" fill="#e6dcff"/>
<rect x="584" y="0" width="8" height="8" fill="#e6dcff"/>
<rect x="592" y="0" width="8" height="8" fill="#e6dcff"/>
<rect x="32" y="8" width="8" height="8" fill="#e6dcff"/>
<rect x="64" y="8" width="8" height="8" fill="#e6dcff"/>
<rect x="96" y="8" width="8" height="8" fill="#e6dcff"/>
<rect x="104" y="8" width="8" height="8" fill="#e6dcff"/>
<rect x="120" y="8" width="8" height="8" fill="#e6dcff"/>
<rect x="128" y="8" width="8" height="8" fill="#e6dcff"/>
<rect x="144" y="8" width="8" height="8" fill="#e6dcff"/>
<rect x="176" y="8" width="8" height="8" fill="#e6dcff"/>
<rect x="192" y="8" width="8" height="8" fill="#e6dcff"/>
<rect x="224" y="8" width="8" height="8" fill="#e6dcff"/>
<rect x="240" y="8" width="8" height="8" fill="#e6dcff"/>
<rect x="272" y="8" width="8" height="8" fill="#e6dcff"/>
<rect x="320" y="8" width="8" height="8" fill="#e6dcff"/>
<rect x="352" y="8" width="8" height="8" fill="#e6dcff"/>
<rect x="400" y="8" width="8" height="8" fill="#e6dcff"/>
<rect x="416" y="8" width="8" height="8" fill="#e6dcff"/>
<rect x="448" y="8" width="8" height="8" fill="#e6dcff"/>
<rect x="464" y="8" width="8" height="8" fill="#e6dcff"/>
<rect x="496" y="8" width="8" height="8" fill="#e6dcff"/>
<rect x="512" y="8" width="8" height="8" fill="#e6dcff"/>
<rect x="544" y="8" width="8" height="8" fill="#e6dcff"/>
<rect x="576" y="8" width="8" height="8" fill="#e6dcff"/>
<rect x="24" y="16" width="8" height="8" fill="#e6dcff"/>
<rect x="64" y="16" width="8" height="8" fill="#e6dcff"/>
<rect x="96" y="16" width="8" height="8" fill="#e6dcff"/>
<rect x="112" y="16" width="8" height="8" fill="#e6dcff"/>
<rect x="128" y="16" width="8" height="8" fill="#e6dcff"/>
<rect x="144" y="16" width="8" height="8" fill="#e6dcff"/>
<rect x="176" y="16" width="8" height="8" fill="#e6dcff"/>
<rect x="192" y="16" width="8" height="8" fill="#e6dcff"/>
<rect x="224" y="16" width="8" height="8" fill="#e6dcff"/>
<rect x="240" y="16" width="8" height="8" fill="#e6dcff"/>
<rect x="272" y="16" width="8" height="8" fill="#e6dcff"/>
<rect x="320" y="16" width="8" height="8" fill="#e6dcff"/>
<rect x="352" y="16" width="8" height="8" fill="#e6dcff"/>
<rect x="392" y="16" width="8" height="8" fill="#e6dcff"/>
<rect x="416" y="16" width="8" height="8" fill="#e6dcff"/>
<rect x="448" y="16" width="8" height="8" fill="#e6dcff"/>
<rect x="464" y="16" width="8" height="8" fill="#e6dcff"/>
<rect x="496" y="16" width="8" height="8" fill="#e6dcff"/>
<rect x="512" y="16" width="8" height="8" fill="#e6dcff"/>
<rect x="544" y="16" width="8" height="8" fill="#e6dcff"/>
<rect x="576" y="16" width="8" height="8" fill="#e6dcff"/>
<rect x="16" y="24" width="8" height="8" fill="#e6dcff"/>
<rect x="64" y="24" width="8" height="8" fill="#e6dcff"/>
<rect x="96" y="24" width="8" height="8" fill="#e6dcff"/>
<rect x="112" y="24" width="8" height="8" fill="#e6dcff"/>
<rect x="128" y="24" width="8" height="8" fill="#e6dcff"/>
<rect x="144" y="24" width="8" height="8" fill="#e6dcff"/>
<rect x="152" y="24" width="8" height="8" fill="#e6dcff"/>
<rect x="160" y="24" width="8" height="8" fill="#e6dcff"/>
<rect x="168" y="24" width="8" height="8" fill="#e6dcff"/>
<rect x="176" y="24" width="8" height="8" fill="#e6dcff"/>
<rect x="192" y="24" width="8" height="8" fill="#e6dcff"/>
<rect x="200" y="24" width="8" height="8" fill="#e6dcff"/>
<rect x="208" y="24" width="8" height="8" fill="#e6dcff"/>
<rect x="216" y="24" width="8" height="8" fill="#e6dcff"/>
<rect x="224" y="24" width="8" height="8" fill="#e6dcff"/>
<rect x="240" y="24" width="8" height="8" fill="#e6dcff"/>
<rect x="272" y="24" width="8" height="8" fill="#e6dcff"/>
<rect x="320" y="24" width="8" height="8" fill="#e6dcff"/>
<rect x="328" y="24" width="8" height="8" fill="#e6dcff"/>
<rect x="336" y="24" width="8" height="8" fill="#e6dcff"/>
<rect x="344" y="24" width="8" height="8" fill="#e6dcff"/>
<rect x="352" y="24" width="8" height="8" fill="#e6dcff"/>
<rect x="384" y="24" width="8" height="8" fill="#e6dcff"/>
<rect x="416" y="24" width="8" height="8" fill="#e6dcff"/>
<rect x="424" y="24" width="8" height="8" fill="#e6dcff"/>
<rect x="432" y="24" width="8" height="8" fill="#e6dcff"/>
<rect x="440" y="24" width="8" height="8" fill="#e6dcff"/>
<rect x="448" y="24" width="8" height="8" fill="#e6dcff"/>
<rect x="464" y="24" width="8" height="8" fill="#e6dcff"/>
<rect x="472" y="24" width="8" height="8" fill="#e6dcff"/>
<rect x="480" y="24" width="8" height="8" fill="#e6dcff"/>
<rect x="488" y="24" width="8" height="8" fill="#e6dcff"/>
<rect x="496" y="24" width="8" height="8" fill="#e6dcff"/>
<rect x="512" y="24" width="8" height="8" fill="#e6dcff"/>
<rect x="520" y="24" width="8" height="8" fill="#e6dcff"/>
<rect x="528" y="24" width="8" height="8" fill="#e6dcff"/>
<rect x="536" y="24" width="8" height="8" fill="#e6dcff"/>
<rect x="576" y="24" width="8" height="8" fill="#e6dcff"/>
<rect x="8" y="32" width="8" height="8" fill="#e6dcff"/>
<rect x="64" y="32" width="8" height="8" fill="#e6dcff"/>
<rect x="96" y="32" width="8" height="8" fill="#e6dcff"/>
<rect x="128" y="32" width="8" height="8" fill="#e6dcff"/>
<rect x="144" y="32" width="8" height="8" fill="#e6dcff"/>
<rect x="176" y="32" width="8" height="8" fill="#e6dcff"/>
<rect x="192" y="32" width="8" height="8" fill="#e6dcff"/>
<rect x="224" y="32" width="8" height="8" fill="#e6dcff"/>
<rect x="240" y="32" width="8" height="8" fill="#e6dcff"/>
<rect x="272" y="32" width="8" height="8" fill="#e6dcff"/>
<rect x="320" y="32" width="8" height="8" fill="#e6dcff"/>
<rect x="352" y="32" width="8" height="8" fill="#e6dcff"/>
<rect x="376" y="32" width="8" height="8" fill="#e6dcff"/>
<rect x="416" y="32" width="8" height="8" fill="#e6dcff"/>
<rect x="448" y="32" width="8" height="8" fill="#e6dcff"/>
<rect x="464" y="32" width="8" height="8" fill="#e6dcff"/>
<rect x="496" y="32" width="8" height="8" fill="#e6dcff"/>
<rect x="512" y="32" width="8" height="8" fill="#e6dcff"/>
<rect x="528" y="32" width="8" height="8" fill="#e6dcff"/>
<rect x="576" y="32" width="8" height="8" fill="#e6dcff"/>
<rect x="0" y="40" width="8" height="8" fill="#e6dcff"/>
<rect x="64" y="40" width="8" height="8" fill="#e6dcff"/>
<rect x="96" y="40" width="8" height="8" fill="#e6dcff"/>
<rect x="128" y="40" width="8" height="8" fill="#e6dcff"/>
<rect x="144" y="40" width="8" height="8" fill="#e6dcff"/>
<rect x="176" y="40" width="8" height="8" fill="#e6dcff"/>
<rect x="192" y="40" width="8" height="8" fill="#e6dcff"/>
<rect x="224" y="40" width="8" height="8" fill="#e6dcff"/>
<rect x="240" y="40" width="8" height="8" fill="#e6dcff"/>
<rect x="272" y="40" width="8" height="8" fill="#e6dcff"/>
<rect x="320" y="40" width="8" height="8" fill="#e6dcff"/>
<rect x="352" y="40" width="8" height="8" fill="#e6dcff"/>
<rect x="368" y="40" width="8" height="8" fill="#e6dcff"/>
<rect x="416" y="40" width="8" height="8" fill="#e6dcff"/>
<rect x="448" y="40" width="8" height="8" fill="#e6dcff"/>
<rect x="464" y="40" width="8" height="8" fill="#e6dcff"/>
<rect x="496" y="40" width="8" height="8" fill="#e6dcff"/>
<rect x="512" y="40" width="8" height="8" fill="#e6dcff"/>
<rect x="536" y="40" width="8" height="8" fill="#e6dcff"/>
<rect x="576" y="40" width="8" height="8" fill="#e6dcff"/>
<rect x="0" y="48" width="8" height="8" fill="#e6dcff"/>
<rect x="8" y="48" width="8" height="8" fill="#e6dcff"/>
<rect x="16" y="48" width="8" height="8" fill="#e6dcff"/>
<rect x="24" y="48" width="8" height="8" fill="#e6dcff"/>
<rect x="32" y="48" width="8" height="8" fill="#e6dcff"/>
<rect x="48" y="48" width="8" height="8" fill="#e6dcff"/>
<rect x="56" y="48" width="8" height="8" fill="#e6dcff"/>
<rect x="64" y="48" width="8" height="8" fill="#e6dcff"/>
<rect x="72" y="48" width="8" height="8" fill="#e6dcff"/>
<rect x="80" y="48" width="8" height="8" fill="#e6dcff"/>
<rect x="96" y="48" width="8" height="8" fill="#e6dcff"/>
<rect x="128" y="48" width="8" height="8" fill="#e6dcff"/>
<rect x="144" y="48" width="8" height="8" fill="#e6dcff"/>
<rect x="176" y="48" width="8" height="8" fill="#e6dcff"/>
<rect x="192" y="48" width="8" height="8" fill="#e6dcff"/>
<rect x="224" y="48" width="8" height="8" fill="#e6dcff"/>
<rect x="240" y="48" width="8" height="8" fill="#e6dcff"/>
<rect x="248" y="48" width="8" height="8" fill="#e6dcff"/>
<rect x="256" y="48" width="8" height="8" fill="#e6dcff"/>
<rect x="264" y="48" width="8" height="8" fill="#e6dcff"/>
<rect x="320" y="48" width="8" height="8" fill="#e6dcff"/>
<rect x="352" y="48" width="8" height="8" fill="#e6dcff"/>
<rect x="368" y="48" width="8" height="8" fill="#e6dcff"/>
<rect x="376" y="48" width="8" height="8" fill="#e6dcff"/>
<rect x="384" y="48" width="8" height="8" fill="#e6dcff"/>
<rect x="392" y="48" width="8" height="8" fill="#e6dcff"/>
<rect x="400" y="48" width="8" height="8" fill="#e6dcff"/>
<rect x="416" y="48" width="8" height="8" fill="#e6dcff"/>
<rect x="448" y="48" width="8" height="8" fill="#e6dcff"/>
<rect x="464" y="48" width="8" height="8" fill="#e6dcff"/>
<rect x="496" y="48" width="8" height="8" fill="#e6dcff"/>
<rect x="512" y="48" width="8" height="8" fill="#e6dcff"/>
<rect x="544" y="48" width="8" height="8" fill="#e6dcff"/>
<rect x="560" y="48" width="8" height="8" fill="#e6dcff"/>
<rect x="568" y="48" width="8" height="8" fill="#e6dcff"/>
<rect x="576" y="48" width="8" height="8" fill="#e6dcff"/>
<rect x="584" y="48" width="8" height="8" fill="#e6dcff"/>
<rect x="592" y="48" width="8" height="8" fill="#e6dcff"/>
</svg>