<svg xmlns="http://www.w3.org/2000/svg" width="210" height="42" viewBox="0 0 210 42" shape-rendering="crispEdges">
<rect x="39" y="3" width="6" height="6" fill="#7B2FBE"/>
<rect x="45" y="3" width="6" height="6" fill="#7B2FBE"/>
<rect x="51" y="3" width="6" height="6" fill="#7B2FBE"/>
<rect x="57" y="3" width="6" height="6" fill="#7B2FBE"/>
<rect x="69" y="3" width="6" height="6" fill="#7B2FBE"/>
<rect x="75" y="3" width="6" height="6" fill="#7B2FBE"/>
<rect x="81" y="3" width="6" height="6" fill="#7B2FBE"/>
<rect x="87" y="3" width="6" height="6" fill="#7B2FBE"/>
<rect x="93" y="3" width="6" height="6" fill="#7B2FBE"/>
<rect x="111" y="3" width="6" height="6" fill="#7B2FBE"/>
<rect x="117" y="3" width="6" height="6" fill="#7B2FBE"/>
<rect x="123" y="3" width="6" height="6" fill="#7B2FBE"/>
<rect x="147" y="3" width="6" height="6" fill="#7B2FBE"/>
<rect x="153" y="3" width="6" height="6" fill="#7B2FBE"/>
<rect x="159" y="3" width="6" height="6" fill="#7B2FBE"/>
<rect x="165" y="3" width="6" height="6" fill="#7B2FBE"/>
<rect x="177" y="3" width="6" height="6" fill="#7B2FBE"/>
<rect x="201" y="3" width="6" height="6" fill="#7B2FBE"/>
<rect x="33" y="9" width="6" height="6" fill="#7B2FBE"/>
<rect x="81" y="9" width="6" height="6" fill="#7B2FBE"/>
<rect x="105" y="9" width="6" height="6" fill="#7B2FBE"/>
<rect x="129" y="9" width="6" height="6" fill="#7B2FBE"/>
<rect x="141" y="9" width="6" height="6" fill="#7B2FBE"/>
<rect x="177" y="9" width="6" height="6" fill="#7B2FBE"/>
<rect x="195" y="9" width="6" height="6" fill="#7B2FBE"/>
<rect x="33" y="15" width="6" height="6" fill="#7B2FBE"/>
<rect x="81" y="15" width="6" height="6" fill="#7B2FBE"/>
<rect x="105" y="15" width="6" height="6" fill="#7B2FBE"/>
<rect x="129" y="15" width="6" height="6" fill="#7B2FBE"/>
<rect x="141" y="15" width="6" height="6" fill="#7B2FBE"/>
<rect x="177" y="15" width="6" height="6" fill="#7B2FBE"/>
<rect x="189" y="15" width="6" height="6" fill="#7B2FBE"/>
<rect x="39" y="21" width="6" height="6" fill="#7B2FBE"/>
<rect x="45" y="21" width="6" height="6" fill="#7B2FBE"/>
<rect x="51" y="21" width="6" height="6" fill="#7B2FBE"/>
<rect x="81" y="21" width="6" height="6" fill="#7B2FBE"/>
<rect x="105" y="21" width="6" height="6" fill="#7B2FBE"/>
<rect x="111" y="21" width="6" height="6" fill="#7B2FBE"/>
<rect x="117" y="21" width="6" height="6" fill="#7B2FBE"/>
<rect x="123" y="21" width="6" height="6" fill="#7B2FBE"/>
<rect x="129" y="21" width="6" height="6" fill="#7B2FBE"/>
<rect x="141" y="21" width="6" height="6" fill="#7B2FBE"/>
<rect x="177" y="21" width="6" height="6" fill="#7B2FBE"/>
<rect x="183" y="21" width="6" height="6" fill="#7B2FBE"/>
<rect x="57" y="27" width="6" height="6" fill="#7B2FBE"/>
<rect x="81" y="27" width="6" height="6" fill="#7B2FBE"/>
<rect x="105" y="27" width="6" height="6" fill="#7B2FBE"/>
<rect x="129" y="27" width="6" height="6" fill="#7B2FBE"/>
<rect x="141" y="27" width="6" height="6" fill="#7B2FBE"/>
<rect x="177" y="27" width="6" height="6" fill="#7B2FBE"/>
<rect x="189" y="27" width="6" height="6" fill="#7B2FBE"/>
<rect x="57" y="33" width="6" height="6" fill="#7B2FBE"/>
<rect x="81" y="33" width="6" height="6" fill="#7B2FBE"/>
<rect x="105" y="33" width="6" height="6" fill="#7B2FBE"/>
<rect x="129" y="33" width="6" height="6" fill="#7B2FBE"/>
<rect x="141" y="33" width="6" height="6" fill="#7B2FBE"/>
<rect x="177" y="33" width="6" height="6" fill="#7B2FBE"/>
<rect x="195" y="33" width="6" height="6" fill="#7B2FBE"/>
<rect x="33" y="39" width="6" height="6" fill="#7B2FBE"/>
<rect x="39" y="39" width="6" height="6" fill="#7B2FBE"/>
<rect x="45" y="39" width="6" height="6" fill="#7B2FBE"/>
<rect x="51" y="39" width="6" height="6" fill="#7B2FBE"/>
<rect x="81" y="39" width="6" height="6" fill="#7B2FBE"/>
<rect x="105" y="39" width="6" height="6" fill="#7B2FBE"/>
<rect x="129" y="39" width="6" height="6" fill="#7B2FBE"/>
<rect x="147" y="39" width="6" height="6" fill="#7B2FBE"/>
<rect x="153" y="39" width="6" height="6" fill="#7B2FBE"/>
<rect x="159" y="39" width="6" height="6" fill="#7B2FBE"/>
<rect x="165" y="39" width="6" height="6" fill="#7B2FBE"/>
<rect x="177" y="39" width="6" height="6" fill="#7B2FBE"/>
<rect x="201" y="39" width="6" height="6" fill="#7B2FBE"/>
<rect x="36" y="0" width="6" height="6" fill="#c9b3ff"/>
<rect x="42" y="0" width="6" height="6" fill="#c9b3ff"/>
<rect x="48" y="0" width="6" height="6" fill="#c9b3ff"/>
<rect x="54" y="0" width="6" height="6" fill="#c9b3ff"/>
<rect x="66" y="0" width="6" height="6" fill="#c9b3ff"/>
<rect x="72" y="0" width="6" height="6" fill="#c9b3ff"/>
<rect x="78" y="0" width="6" height="6" fill="#c9b3ff"/>
<rect x="84" y="0" width="6" height="6" fill="#c9b3ff"/>
<rect x="90" y="0" width="6" height="6" fill="#c9b3ff"/>
<rect x="108" y="0" width="6" height="6" fill="#c9b3ff"/>
<rect x="114" y="0" width="6" height="6" fill="#c9b3ff"/>
<rect x="120" y="0" width="6" height="6" fill="#c9b3ff"/>
<rect x="144" y="0" width="6" height="6" fill="#c9b3ff"/>
<rect x="150" y="0" width="6" height="6" fill="#c9b3ff"/>
<rect x="156" y="0" width="6" height="6" fill="#c9b3ff"/>
<rect x="162" y="0" width="6" height="6" fill="#c9b3ff"/>
<rect x="174" y="0" width="6" height="6" fill="#c9b3ff"/>
<rect x="198" y="0" width="6" height="6" fill="#c9b3ff"/>
<rect x="0" y="6" width="6" height="6" fill="#6ee7c7"/>
<rect x="30" y="6" width="6" height="6" fill="#c9b3ff"/>
<rect x="78" y="6" width="6" height="6" fill="#c9b3ff"/>
<rect x="102" y="6" width="6" height="6" fill="#c9b3ff"/>
<rect x="126" y="6" width="6" height="6" fill="#c9b3ff"/>
<rect x="138" y="6" width="6" height="6" fill="#c9b3ff"/>
<rect x="174" y="6" width="6" height="6" fill="#c9b3ff"/>
<rect x="192" y="6" width="6" height="6" fill="#c9b3ff"/>
<rect x="0" y="12" width="6" height="6" fill="#6ee7c7"/>
<rect x="6" y="12" width="6" height="6" fill="#6ee7c7"/>
<rect x="30" y="12" width="6" height="6" fill="#c9b3ff"/>
<rect x="78" y="12" width="6" height="6" fill="#c9b3ff"/>
<rect x="102" y="12" width="6" height="6" fill="#c9b3ff"/>
<rect x="126" y="12" width="6" height="6" fill="#c9b3ff"/>
<rect x="138" y="12" width="6" height="6" fill="#c9b3ff"/>
<rect x="174" y="12" width="6" height="6" fill="#c9b3ff"/>
<rect x="186" y="12" width="6" height="6" fill="#c9b3ff"/>
<rect x="0" y="18" width="6" height="6" fill="#6ee7c7"/>
<rect x="6" y="18" width="6" height="6" fill="#6ee7c7"/>
<rect x="12" y="18" width="6" height="6" fill="#6ee7c7"/>
<rect x="36" y="18" width="6" height="6" fill="#c9b3ff"/>
<rect x="42" y="18" width="6" height="6" fill="#c9b3ff"/>
<rect x="48" y="18" width="6" height="6" fill="#c9b3ff"/>
<rect x="78" y="18" width="6" height="6" fill="#c9b3ff"/>
<rect x="102" y="18" width="6" height="6" fill="#c9b3ff"/>
<rect x="108" y="18" width="6" height="6" fill="#c9b3ff"/>
<rect x="114" y="18" width="6" height="6" fill="#c9b3ff"/>
<rect x="120" y="18" width="6" height="6" fill="#c9b3ff"/>
<rect x="126" y="18" width="6" height="6" fill="#c9b3ff"/>
<rect x="138" y="18" width="6" height="6" fill="#c9b3ff"/>
<rect x="174" y="18" width="6" height="6" fill="#c9b3ff"/>
<rect x="180" y="18" width="6" height="6" fill="#c9b3ff"/>
<rect x="0" y="24" width="6" height="6" fill="#6ee7c7"/>
<rect x="6" y="24" width="6" height="6" fill="#6ee7c7"/>
<rect x="54" y="24" width="6" height="6" fill="#c9b3ff"/>
<rect x="78" y="24" width="6" height="6" fill="#c9b3ff"/>
<rect x="102" y="24" width="6" height="6" fill="#c9b3ff"/>
<rect x="126" y="24" width="6" height="6" fill="#c9b3ff"/>
<rect x="138" y="24" width="6" height="6" fill="#c9b3ff"/>
<rect x="174" y="24" width="6" height="6" fill="#c9b3ff"/>
<rect x="186" y="24" width="6" height="6" fill="#c9b3ff"/>
<rect x="0" y="30" width="6" height="6" fill="#6ee7c7"/>
<rect x="54" y="30" width="6" height="6" fill="#c9b3ff"/>
<rect x="78" y="30" width="6" height="6" fill="#c9b3ff"/>
<rect x="102" y="30" width="6" height="6" fill="#c9b3ff"/>
<rect x="126" y="30" width="6" height="6" fill="#c9b3ff"/>
<rect x="138" y="30" width="6" height="6" fill="#c9b3ff"/>
<rect x="174" y="30" width="6" height="6" fill="#c9b3ff"/>
<rect x="192" y="30" width="6" height="6" fill="#c9b3ff"/>
<rect x="30" y="36" width="6" height="6" fill="#c9b3ff"/>
<rect x="36" y="36" width="6" height="6" fill="#c9b3ff"/>
<rect x="42" y="36" width="6" height="6" fill="#c9b3ff"/>
<rect x="48" y="36" width="6" height="6" fill="#c9b3ff"/>
<rect x="78" y="36" width="6" height="6" fill="#c9b3ff"/>
<rect x="102" y="36" width="6" height="6" fill="#c9b3ff"/>
<rect x="126" y="36" width="6" height="6" fill="#c9b3ff"/>
<rect x="144" y="36" width="6" height="6" fill="#c9b3ff"/>
<rect x="150" y="36" width="6" height="6" fill="#c9b3ff"/>
<rect x="156" y="36" width="6" height="6" fill="#c9b3ff"/>
<rect x="162" y="36" width="6" height="6" fill="#c9b3ff"/>
<rect x="174" y="36" width="6" height="6" fill="#c9b3ff"/>
<rect x="198" y="36" width="6" height="6" fill="#c9b3ff"/>
</svg>