<svg xmlns="http://www.w3.org/2000/svg" width="100%" height="16" viewBox="0 0 640 16" preserveAspectRatio="none" shape-rendering="crispEdges">
<rect x="0" y="0" width="8" height="8" fill="#5f239a"/>
<rect x="8" y="0" width="8" height="8" fill="#5f239a"/>
<rect x="16" y="0" width="8" height="8" fill="#5f239a"/>
<rect x="24" y="0" width="8" height="8" fill="#7B2FBE"/>
<rect x="32" y="0" width="8" height="8" fill="#7B2FBE"/>
<rect x="40" y="0" width="8" height="8" fill="#7B2FBE"/>
<rect x="48" y="0" width="8" height="8" fill="#b98cff"/>
<rect x="56" y="0" width="8" height="8" fill="#b98cff"/>
<rect x="72" y="0" width="8" height="8" fill="#7B2FBE"/>
<rect x="80" y="0" width="8" height="8" fill="#7B2FBE"/>
<rect x="88" y="0" width="8" height="8" fill="#7B2FBE"/>
<rect x="96" y="0" width="8" height="8" fill="#5f239a"/>
<rect x="104" y="0" width="8" height="8" fill="#5f239a"/>
<rect x="112" y="0" width="8" height="8" fill="#5f239a"/>
<rect x="120" y="0" width="8" height="8" fill="#372c66"/>
<rect x="128" y="0" width="8" height="8" fill="#372c66"/>
<rect x="144" y="0" width="8" height="8" fill="#4b3f86"/>
<rect x="152" y="0" width="8" height="8" fill="#4b3f86"/>
<rect x="160" y="0" width="8" height="8" fill="#4b3f86"/>
<rect x="168" y="0" width="8" height="8" fill="#9B59F7"/>
<rect x="176" y="0" width="8" height="8" fill="#9B59F7"/>
<rect x="184" y="0" width="8" height="8" fill="#9B59F7"/>
<rect x="192" y="0" width="8" height="8" fill="#5f239a"/>
<rect x="200" y="0" width="8" height="8" fill="#5f239a"/>
<rect x="216" y="0" width="8" height="8" fill="#7B2FBE"/>
<rect x="224" y="0" width="8" height="8" fill="#7B2FBE"/>
<rect x="232" y="0" width="8" height="8" fill="#7B2FBE"/>
<rect x="240" y="0" width="8" height="8" fill="#b98cff"/>
<rect x="248" y="0" width="8" height="8" fill="#b98cff"/>
<rect x="256" y="0" width="8" height="8" fill="#b98cff"/>
<rect x="264" y="0" width="8" height="8" fill="#7B2FBE"/>
<rect x="272" y="0" width="8" height="8" fill="#7B2FBE"/>
<rect x="288" y="0" width="8" height="8" fill="#5f239a"/>
<rect x="296" y="0" width="8" height="8" fill="#5f239a"/>
<rect x="304" y="0" width="8" height="8" fill="#5f239a"/>
<rect x="312" y="0" width="8" height="8" fill="#372c66"/>
<rect x="320" y="0" width="8" height="8" fill="#372c66"/>
<rect x="328" y="0" width="8" height="8" fill="#372c66"/>
<rect x="336" y="0" width="8" height="8" fill="#4b3f86"/>
<rect x="344" y="0" width="8" height="8" fill="#4b3f86"/>
<rect x="360" y="0" width="8" height="8" fill="#9B59F7"/>
<rect x="368" y="0" width="8" height="8" fill="#9B59F7"/>
<rect x="376" y="0" width="8" height="8" fill="#9B59F7"/>
<rect x="384" y="0" width="8" height="8" fill="#5f239a"/>
<rect x="392" y="0" width="8" height="8" fill="#5f239a"/>
<rect x="400" y="0" width="8" height="8" fill="#5f239a"/>
<rect x="408" y="0" width="8" height="8" fill="#7B2FBE"/>
<rect x="416" y="0" width="8" height="8" fill="#7B2FBE"/>
<rect x="432" y="0" width="8" height="8" fill="#b98cff"/>
<rect x="440" y="0" width="8" height="8" fill="#b98cff"/>
<rect x="448" y="0" width="8" height="8" fill="#b98cff"/>
<rect x="456" y="0" width="8" height="8" fill="#7B2FBE"/>
<rect x="464" y="0" width="8" height="8" fill="#7B2FBE"/>
<rect x="472" y="0" width="8" height="8" fill="#7B2FBE"/>
<rect x="480" y="0" width="8" height="8" fill="#5f239a"/>
<rect x="488" y="0" width="8" height="8" fill="#5f239a"/>
<rect x="504" y="0" width="8" height="8" fill="#372c66"/>
<rect x="512" y="0" width="8" height="8" fill="#372c66"/>
<rect x="520" y="0" width="8" height="8" fill="#372c66"/>
<rect x="528" y="0" width="8" height="8" fill="#4b3f86"/>
<rect x="536" y="0" width="8" height="8" fill="#4b3f86"/>
<rect x="544" y="0" width="8" height="8" fill="#4b3f86"/>
<rect x="552" y="0" width="8" height="8" fill="#9B59F7"/>
<rect x="560" y="0" width="8" height="8" fill="#9B59F7"/>
<rect x="576" y="0" width="8" height="8" fill="#5f239a"/>
<rect x="584" y="0" width="8" height="8" fill="#5f239a"/>
<rect x="592" y="0" width="8" height="8" fill="#5f239a"/>
<rect x="600" y="0" width="8" height="8" fill="#7B2FBE"/>
<rect x="608" y="0" width="8" height="8" fill="#7B2FBE"/>
<rect x="616" y="0" width="8" height="8" fill="#7B2FBE"/>
<rect x="624" y="0" width="8" height="8" fill="#b98cff"/>
<rect x="632" y="0" width="8" height="8" fill="#b98cff"/>
<rect x="0" y="8" width="8" height="8" fill="#372c66"/>
<rect x="8" y="8" width="8" height="8" fill="#372c66"/>
<rect x="16" y="8" width="8" height="8" fill="#372c66"/>
<rect x="24" y="8" width="8" height="8" fill="#372c66"/>
<rect x="32" y="8" width="8" height="8" fill="#372c66"/>
<rect x="40" y="8" width="8" height="8" fill="#372c66"/>
<rect x="48" y="8" width="8" height="8" fill="#372c66"/>
<rect x="56" y="8" width="8" height="8" fill="#372c66"/>
<rect x="72" y="8" width="8" height="8" fill="#372c66"/>
<rect x="80" y="8" width="8" height="8" fill="#372c66"/>
<rect x="88" y="8" width="8" height="8" fill="#372c66"/>
<rect x="96" y="8" width="8" height="8" fill="#372c66"/>
<rect x="104" y="8" width="8" height="8" fill="#372c66"/>
<rect x="112" y="8" width="8" height="8" fill="#372c66"/>
<rect x="120" y="8" width="8" height="8" fill="#372c66"/>
<rect x="128" y="8" width="8" height="8" fill="#372c66"/>
<rect x="144" y="8" width="8" height="8" fill="#372c66"/>
<rect x="152" y="8" width="8" height="8" fill="#372c66"/>
<rect x="160" y="8" width="8" height="8" fill="#372c66"/>
<rect x="168" y="8" width="8" height="8" fill="#372c66"/>
<rect x="176" y="8" width="8" height="8" fill="#372c66"/>
<rect x="184" y="8" width="8" height="8" fill="#372c66"/>
<rect x="192" y="8" width="8" height="8" fill="#372c66"/>
<rect x="200" y="8" width="8" height="8" fill="#372c66"/>
<rect x="216" y="8" width="8" height="8" fill="#372c66"/>
<rect x="224" y="8" width="8" height="8" fill="#372c66"/>
<rect x="232" y="8" width="8" height="8" fill="#372c66"/>
<rect x="240" y="8" width="8" height="8" fill="#372c66"/>
<rect x="248" y="8" width="8" height="8" fill="#372c66"/>
<rect x="256" y="8" width="8" height="8" fill="#372c66"/>
<rect x="264" y="8" width="8" height="8" fill="#372c66"/>
<rect x="272" y="8" width="8" height="8" fill="#372c66"/>
<rect x="288" y="8" width="8" height="8" fill="#372c66"/>
<rect x="296" y="8" width="8" height="8" fill="#372c66"/>
<rect x="304" y="8" width="8" height="8" fill="#372c66"/>
<rect x="312" y="8" width="8" height="8" fill="#372c66"/>
<rect x="320" y="8" width="8" height="8" fill="#372c66"/>
<rect x="328" y="8" width="8" height="8" fill="#372c66"/>
<rect x="336" y="8" width="8" height="8" fill="#372c66"/>
<rect x="344" y="8" width="8" height="8" fill="#372c66"/>
<rect x="360" y="8" width="8" height="8" fill="#372c66"/>
<rect x="368" y="8" width="8" height="8" fill="#372c66"/>
<rect x="376" y="8" width="8" height="8" fill="#372c66"/>
<rect x="384" y="8" width="8" height="8" fill="#372c66"/>
<rect x="392" y="8" width="8" height="8" fill="#372c66"/>
<rect x="400" y="8" width="8" height="8" fill="#372c66"/>
<rect x="408" y="8" width="8" height="8" fill="#372c66"/>
<rect x="416" y="8" width="8" height="8" fill="#372c66"/>
<rect x="432" y="8" width="8" height="8" fill="#372c66"/>
<rect x="440" y="8" width="8" height="8" fill="#372c66"/>
<rect x="448" y="8" width="8" height="8" fill="#372c66"/>
<rect x="456" y="8" width="8" height="8" fill="#372c66"/>
<rect x="464" y="8" width="8" height="8" fill="#372c66"/>
<rect x="472" y="8" width="8" height="8" fill="#372c66"/>
<rect x="480" y="8" width="8" height="8" fill="#372c66"/>
<rect x="488" y="8" width="8" height="8" fill="#372c66"/>
<rect x="504" y="8" width="8" height="8" fill="#372c66"/>
<rect x="512" y="8" width="8" height="8" fill="#372c66"/>
<rect x="520" y="8" width="8" height="8" fill="#372c66"/>
<rect x="528" y="8" width="8" height="8" fill="#372c66"/>
<rect x="536" y="8" width="8" height="8" fill="#372c66"/>
<rect x="544" y="8" width="8" height="8" fill="#372c66"/>
<rect x="552" y="8" width="8" height="8" fill="#372c66"/>
<rect x="560" y="8" width="8" height="8" fill="#372c66"/>
<rect x="576" y="8" width="8" height="8" fill="#372c66"/>
<rect x="584" y="8" width="8" height="8" fill="#372c66"/>
<rect x="592" y="8" width="8" height="8" fill="#372c66"/>
<rect x="600" y="8" width="8" height="8" fill="#372c66"/>
<rect x="608" y="8" width="8" height="8" fill="#372c66"/>
<rect x="616" y="8" width="8" height="8" fill="#372c66"/>
<rect x="624" y="8" width="8" height="8" fill="#372c66"/>
<rect x="632" y="8" width="8" height="8" fill="#372c66"/>
</svg>