<svg xmlns="http://www.w3.org/2000/svg" width="576" height="360" viewBox="0 0 576 360" shape-rendering="crispEdges" role="img" aria-label="Zimaad night-coding pixel scene">
<rect x="24" y="0" width="528" height="12" fill="#141021"/>
<rect x="12" y="12" width="552" height="12" fill="#141021"/>
<rect x="0" y="24" width="576" height="12" fill="#141021"/>
<rect x="0" y="36" width="36" height="12" fill="#141021"/>
<rect x="36" y="36" width="168" height="12" fill="#4b3f86"/>
<rect x="204" y="36" width="372" height="12" fill="#141021"/>
<rect x="0" y="48" width="36" height="12" fill="#141021"/>
<rect x="36" y="48" width="12" height="12" fill="#4b3f86"/>
<rect x="48" y="48" width="72" height="12" fill="#1d1740"/>
<rect x="120" y="48" width="12" height="12" fill="#4b3f86"/>
<rect x="132" y="48" width="60" height="12" fill="#1d1740"/>
<rect x="192" y="48" width="12" height="12" fill="#4b3f86"/>
<rect x="204" y="48" width="372" height="12" fill="#141021"/>
<rect x="0" y="60" width="36" height="12" fill="#141021"/>
<rect x="36" y="60" width="12" height="12" fill="#4b3f86"/>
<rect x="48" y="60" width="12" height="12" fill="#1d1740"/>
<rect x="60" y="60" width="12" height="12" fill="#d8ccff"/>
<rect x="72" y="60" width="48" height="12" fill="#1d1740"/>
<rect x="120" y="60" width="12" height="12" fill="#4b3f86"/>
<rect x="132" y="60" width="24" height="12" fill="#1d1740"/>
<rect x="156" y="60" width="24" height="12" fill="#efe9ff"/>
<rect x="180" y="60" width="12" height="12" fill="#1d1740"/>
<rect x="192" y="60" width="12" height="12" fill="#4b3f86"/>
<rect x="204" y="60" width="12" height="12" fill="#141021"/>
<rect x="216" y="60" width="204" height="12" fill="#4b3f86"/>
<rect x="420" y="60" width="156" height="12" fill="#141021"/>
<rect x="0" y="72" width="36" height="12" fill="#141021"/>
<rect x="36" y="72" width="12" height="12" fill="#4b3f86"/>
<rect x="48" y="72" width="36" height="12" fill="#1d1740"/>
<rect x="84" y="72" width="12" height="12" fill="#d8ccff"/>
<rect x="96" y="72" width="24" height="12" fill="#1d1740"/>
<rect x="120" y="72" width="12" height="12" fill="#4b3f86"/>
<rect x="132" y="72" width="12" height="12" fill="#1d1740"/>
<rect x="144" y="72" width="24" height="12" fill="#efe9ff"/>
<rect x="168" y="72" width="12" height="12" fill="#c9bcf2"/>
<rect x="180" y="72" width="12" height="12" fill="#1d1740"/>
<rect x="192" y="72" width="12" height="12" fill="#4b3f86"/>
<rect x="204" y="72" width="12" height="12" fill="#141021"/>
<rect x="216" y="72" width="12" height="12" fill="#4b3f86"/>
<rect x="228" y="72" width="180" height="12" fill="#372c66"/>
<rect x="408" y="72" width="12" height="12" fill="#4b3f86"/>
<rect x="420" y="72" width="156" height="12" fill="#141021"/>
<rect x="0" y="84" width="36" height="12" fill="#141021"/>
<rect x="36" y="84" width="12" height="12" fill="#4b3f86"/>
<rect x="48" y="84" width="12" height="12" fill="#1d1740"/>
<rect x="60" y="84" width="12" height="12" fill="#d8ccff"/>
<rect x="72" y="84" width="48" height="12" fill="#1d1740"/>
<rect x="120" y="84" width="12" height="12" fill="#4b3f86"/>
<rect x="132" y="84" width="24" height="12" fill="#1d1740"/>
<rect x="156" y="84" width="24" height="12" fill="#efe9ff"/>
<rect x="180" y="84" width="12" height="12" fill="#1d1740"/>
<rect x="192" y="84" width="12" height="12" fill="#4b3f86"/>
<rect x="204" y="84" width="12" height="12" fill="#141021"/>
<rect x="216" y="84" width="12" height="12" fill="#4b3f86"/>
<rect x="228" y="84" width="12" height="12" fill="#372c66"/>
<rect x="240" y="84" width="156" height="12" fill="#9B59F7"/>
<rect x="396" y="84" width="12" height="12" fill="#372c66"/>
<rect x="408" y="84" width="12" height="12" fill="#4b3f86"/>
<rect x="420" y="84" width="156" height="12" fill="#141021"/>
<rect x="0" y="96" width="36" height="12" fill="#141021"/>
<rect x="36" y="96" width="168" height="12" fill="#4b3f86"/>
<rect x="204" y="96" width="12" height="12" fill="#141021"/>
<rect x="216" y="96" width="12" height="12" fill="#4b3f86"/>
<rect x="228" y="96" width="12" height="12" fill="#372c66"/>
<rect x="240" y="96" width="12" height="12" fill="#9B59F7"/>
<rect x="252" y="96" width="96" height="12" fill="#c9b3ff"/>
<rect x="348" y="96" width="48" height="12" fill="#9B59F7"/>
<rect x="396" y="96" width="12" height="12" fill="#372c66"/>
<rect x="408" y="96" width="12" height="12" fill="#4b3f86"/>
<rect x="420" y="96" width="156" height="12" fill="#141021"/>
<rect x="0" y="108" width="36" height="12" fill="#141021"/>
<rect x="36" y="108" width="12" height="12" fill="#4b3f86"/>
<rect x="48" y="108" width="72" height="12" fill="#1d1740"/>
<rect x="120" y="108" width="12" height="12" fill="#4b3f86"/>
<rect x="132" y="108" width="60" height="12" fill="#1d1740"/>
<rect x="192" y="108" width="12" height="12" fill="#4b3f86"/>
<rect x="204" y="108" width="12" height="12" fill="#141021"/>
<rect x="216" y="108" width="12" height="12" fill="#4b3f86"/>
<rect x="228" y="108" width="12" height="12" fill="#372c66"/>
<rect x="240" y="108" width="12" height="12" fill="#9B59F7"/>
<rect x="252" y="108" width="60" height="12" fill="#6ee7c7"/>
<rect x="312" y="108" width="84" height="12" fill="#9B59F7"/>
<rect x="396" y="108" width="12" height="12" fill="#372c66"/>
<rect x="408" y="108" width="12" height="12" fill="#4b3f86"/>
<rect x="420" y="108" width="156" height="12" fill="#141021"/>
<rect x="0" y="120" width="36" height="12" fill="#141021"/>
<rect x="36" y="120" width="12" height="12" fill="#4b3f86"/>
<rect x="48" y="120" width="24" height="12" fill="#1d1740"/>
<rect x="72" y="120" width="12" height="12" fill="#d8ccff"/>
<rect x="84" y="120" width="36" height="12" fill="#1d1740"/>
<rect x="120" y="120" width="12" height="12" fill="#4b3f86"/>
<rect x="132" y="120" width="24" height="12" fill="#1d1740"/>
<rect x="156" y="120" width="12" height="12" fill="#d8ccff"/>
<rect x="168" y="120" width="24" height="12" fill="#1d1740"/>
<rect x="192" y="120" width="12" height="12" fill="#4b3f86"/>
<rect x="204" y="120" width="12" height="12" fill="#141021"/>
<rect x="216" y="120" width="12" height="12" fill="#4b3f86"/>
<rect x="228" y="120" width="12" height="12" fill="#372c66"/>
<rect x="240" y="120" width="36" height="12" fill="#9B59F7"/>
<rect x="276" y="120" width="84" height="12" fill="#c9b3ff"/>
<rect x="360" y="120" width="36" height="12" fill="#9B59F7"/>
<rect x="396" y="120" width="12" height="12" fill="#372c66"/>
<rect x="408" y="120" width="12" height="12" fill="#4b3f86"/>
<rect x="420" y="120" width="72" height="12" fill="#141021"/>
<rect x="492" y="120" width="12" height="12" fill="#3fb6a8"/>
<rect x="504" y="120" width="12" height="12" fill="#2f8f84"/>
<rect x="516" y="120" width="60" height="12" fill="#141021"/>
<rect x="0" y="132" width="36" height="12" fill="#141021"/>
<rect x="36" y="132" width="12" height="12" fill="#4b3f86"/>
<rect x="48" y="132" width="60" height="12" fill="#1d1740"/>
<rect x="108" y="132" width="12" height="12" fill="#d8ccff"/>
<rect x="120" y="132" width="12" height="12" fill="#4b3f86"/>
<rect x="132" y="132" width="60" height="12" fill="#1d1740"/>
<rect x="192" y="132" width="12" height="12" fill="#4b3f86"/>
<rect x="204" y="132" width="12" height="12" fill="#141021"/>
<rect x="216" y="132" width="12" height="12" fill="#4b3f86"/>
<rect x="228" y="132" width="12" height="12" fill="#372c66"/>
<rect x="240" y="132" width="12" height="12" fill="#9B59F7"/>
<rect x="252" y="132" width="48" height="12" fill="#c9b3ff"/>
<rect x="300" y="132" width="12" height="12" fill="#9B59F7"/>
<rect x="312" y="132" width="60" height="12" fill="#6ee7c7"/>
<rect x="372" y="132" width="24" height="12" fill="#9B59F7"/>
<rect x="396" y="132" width="12" height="12" fill="#372c66"/>
<rect x="408" y="132" width="12" height="12" fill="#4b3f86"/>
<rect x="420" y="132" width="72" height="12" fill="#141021"/>
<rect x="492" y="132" width="12" height="12" fill="#3fb6a8"/>
<rect x="504" y="132" width="12" height="12" fill="#141021"/>
<rect x="516" y="132" width="12" height="12" fill="#3fb6a8"/>
<rect x="528" y="132" width="48" height="12" fill="#141021"/>
<rect x="0" y="144" width="36" height="12" fill="#141021"/>
<rect x="36" y="144" width="12" height="12" fill="#4b3f86"/>
<rect x="48" y="144" width="72" height="12" fill="#1d1740"/>
<rect x="120" y="144" width="12" height="12" fill="#4b3f86"/>
<rect x="132" y="144" width="60" height="12" fill="#1d1740"/>
<rect x="192" y="144" width="12" height="12" fill="#4b3f86"/>
<rect x="204" y="144" width="12" height="12" fill="#141021"/>
<rect x="216" y="144" width="12" height="12" fill="#4b3f86"/>
<rect x="228" y="144" width="12" height="12" fill="#372c66"/>
<rect x="240" y="144" width="12" height="12" fill="#9B59F7"/>
<rect x="252" y="144" width="72" height="12" fill="#6ee7c7"/>
<rect x="324" y="144" width="72" height="12" fill="#9B59F7"/>
<rect x="396" y="144" width="12" height="12" fill="#372c66"/>
<rect x="408" y="144" width="12" height="12" fill="#4b3f86"/>
<rect x="420" y="144" width="60" height="12" fill="#141021"/>
<rect x="480" y="144" width="12" height="12" fill="#3fb6a8"/>
<rect x="492" y="144" width="12" height="12" fill="#141021"/>
<rect x="504" y="144" width="12" height="12" fill="#3fb6a8"/>
<rect x="516" y="144" width="60" height="12" fill="#141021"/>
<rect x="0" y="156" width="36" height="12" fill="#141021"/>
<rect x="36" y="156" width="168" height="12" fill="#4b3f86"/>
<rect x="204" y="156" width="12" height="12" fill="#141021"/>
<rect x="216" y="156" width="12" height="12" fill="#4b3f86"/>
<rect x="228" y="156" width="12" height="12" fill="#372c66"/>
<rect x="240" y="156" width="36" height="12" fill="#9B59F7"/>
<rect x="276" y="156" width="96" height="12" fill="#c9b3ff"/>
<rect x="372" y="156" width="24" height="12" fill="#9B59F7"/>
<rect x="396" y="156" width="12" height="12" fill="#372c66"/>
<rect x="408" y="156" width="12" height="12" fill="#4b3f86"/>
<rect x="420" y="156" width="48" height="12" fill="#141021"/>
<rect x="468" y="156" width="12" height="12" fill="#3fb6a8"/>
<rect x="480" y="156" width="12" height="12" fill="#141021"/>
<rect x="492" y="156" width="12" height="12" fill="#2f8f84"/>
<rect x="504" y="156" width="12" height="12" fill="#141021"/>
<rect x="516" y="156" width="12" height="12" fill="#3fb6a8"/>
<rect x="528" y="156" width="48" height="12" fill="#141021"/>
<rect x="0" y="168" width="216" height="12" fill="#141021"/>
<rect x="216" y="168" width="12" height="12" fill="#4b3f86"/>
<rect x="228" y="168" width="12" height="12" fill="#372c66"/>
<rect x="240" y="168" width="12" height="12" fill="#9B59F7"/>
<rect x="252" y="168" width="36" height="12" fill="#c9b3ff"/>
<rect x="288" y="168" width="12" height="12" fill="#9B59F7"/>
<rect x="300" y="168" width="72" height="12" fill="#c9b3ff"/>
<rect x="372" y="168" width="24" height="12" fill="#9B59F7"/>
<rect x="396" y="168" width="12" height="12" fill="#372c66"/>
<rect x="408" y="168" width="12" height="12" fill="#4b3f86"/>
<rect x="420" y="168" width="48" height="12" fill="#141021"/>
<rect x="468" y="168" width="24" height="12" fill="#2f8f84"/>
<rect x="492" y="168" width="12" height="12" fill="#141021"/>
<rect x="504" y="168" width="12" height="12" fill="#3fb6a8"/>
<rect x="516" y="168" width="60" height="12" fill="#141021"/>
<rect x="0" y="180" width="216" height="12" fill="#141021"/>
<rect x="216" y="180" width="12" height="12" fill="#4b3f86"/>
<rect x="228" y="180" width="12" height="12" fill="#372c66"/>
<rect x="240" y="180" width="36" height="12" fill="#9B59F7"/>
<rect x="276" y="180" width="60" height="12" fill="#6ee7c7"/>
<rect x="336" y="180" width="60" height="12" fill="#9B59F7"/>
<rect x="396" y="180" width="12" height="12" fill="#372c66"/>
<rect x="408" y="180" width="12" height="12" fill="#4b3f86"/>
<rect x="420" y="180" width="60" height="12" fill="#141021"/>
<rect x="480" y="180" width="12" height="12" fill="#3fb6a8"/>
<rect x="492" y="180" width="24" height="12" fill="#141021"/>
<rect x="516" y="180" width="12" height="12" fill="#2f8f84"/>
<rect x="528" y="180" width="48" height="12" fill="#141021"/>
<rect x="0" y="192" width="192" height="12" fill="#141021"/>
<rect x="192" y="192" width="12" height="12" fill="#5a4d80"/>
<rect x="204" y="192" width="12" height="12" fill="#141021"/>
<rect x="216" y="192" width="12" height="12" fill="#4b3f86"/>
<rect x="228" y="192" width="12" height="12" fill="#372c66"/>
<rect x="240" y="192" width="36" height="12" fill="#9B59F7"/>
<rect x="288" y="192" width="48" height="12" fill="#2a2140"/>
<rect x="348" y="192" width="48" height="12" fill="#9B59F7"/>
<rect x="396" y="192" width="12" height="12" fill="#372c66"/>
<rect x="408" y="192" width="12" height="12" fill="#4b3f86"/>
<rect x="420" y="192" width="60" height="12" fill="#141021"/>
<rect x="480" y="192" width="48" height="12" fill="#8a5a3c"/>
<rect x="528" y="192" width="48" height="12" fill="#141021"/>
<rect x="0" y="204" width="180" height="12" fill="#141021"/>
<rect x="180" y="204" width="12" height="12" fill="#5a4d80"/>
<rect x="192" y="204" width="12" height="12" fill="#141021"/>
<rect x="204" y="204" width="12" height="12" fill="#5a4d80"/>
<rect x="216" y="204" width="12" height="12" fill="#4b3f86"/>
<rect x="228" y="204" width="48" height="12" fill="#372c66"/>
<rect x="276" y="204" width="72" height="12" fill="#2a2140"/>
<rect x="348" y="204" width="60" height="12" fill="#372c66"/>
<rect x="408" y="204" width="12" height="12" fill="#4b3f86"/>
<rect x="420" y="204" width="60" height="12" fill="#141021"/>
<rect x="480" y="204" width="48" height="12" fill="#8a5a3c"/>
<rect x="528" y="204" width="48" height="12" fill="#141021"/>
<rect x="0" y="216" width="192" height="12" fill="#141021"/>
<rect x="192" y="216" width="12" height="12" fill="#5a4d80"/>
<rect x="204" y="216" width="12" height="12" fill="#141021"/>
<rect x="216" y="216" width="60" height="12" fill="#4b3f86"/>
<rect x="276" y="216" width="72" height="12" fill="#2a2140"/>
<rect x="348" y="216" width="72" height="12" fill="#4b3f86"/>
<rect x="420" y="216" width="60" height="12" fill="#141021"/>
<rect x="480" y="216" width="48" height="12" fill="#2f8f84"/>
<rect x="528" y="216" width="48" height="12" fill="#141021"/>
<rect x="0" y="228" width="180" height="12" fill="#141021"/>
<rect x="180" y="228" width="36" height="12" fill="#7a5a3a"/>
<rect x="216" y="228" width="60" height="12" fill="#141021"/>
<rect x="276" y="228" width="72" height="12" fill="#2a2140"/>
<rect x="348" y="228" width="132" height="12" fill="#141021"/>
<rect x="480" y="228" width="48" height="12" fill="#8a5a3c"/>
<rect x="528" y="228" width="48" height="12" fill="#141021"/>
<rect x="0" y="240" width="180" height="12" fill="#1b1533"/>
<rect x="180" y="240" width="48" height="12" fill="#b98cff"/>
<rect x="228" y="240" width="60" height="12" fill="#1b1533"/>
<rect x="288" y="240" width="48" height="12" fill="#5f239a"/>
<rect x="336" y="240" width="240" height="12" fill="#1b1533"/>
<rect x="0" y="252" width="180" height="12" fill="#1b1533"/>
<rect x="180" y="252" width="36" height="12" fill="#b98cff"/>
<rect x="216" y="252" width="36" height="12" fill="#1b1533"/>
<rect x="252" y="252" width="24" height="12" fill="#5f239a"/>
<rect x="276" y="252" width="72" height="12" fill="#7B2FBE"/>
<rect x="348" y="252" width="24" height="12" fill="#5f239a"/>
<rect x="372" y="252" width="204" height="12" fill="#1b1533"/>
<rect x="0" y="264" width="12" height="12" fill="#1b1533"/>
<rect x="12" y="264" width="240" height="12" fill="#181227"/>
<rect x="252" y="264" width="24" height="12" fill="#5f239a"/>
<rect x="276" y="264" width="72" height="12" fill="#7B2FBE"/>
<rect x="348" y="264" width="24" height="12" fill="#5f239a"/>
<rect x="372" y="264" width="192" height="12" fill="#181227"/>
<rect x="564" y="264" width="12" height="12" fill="#1b1533"/>
<rect x="0" y="276" width="12" height="12" fill="#1b1533"/>
<rect x="12" y="276" width="228" height="12" fill="#241d3a"/>
<rect x="240" y="276" width="12" height="12" fill="#7B2FBE"/>
<rect x="252" y="276" width="24" height="12" fill="#5f239a"/>
<rect x="276" y="276" width="72" height="12" fill="#7B2FBE"/>
<rect x="348" y="276" width="24" height="12" fill="#5f239a"/>
<rect x="372" y="276" width="12" height="12" fill="#7B2FBE"/>
<rect x="384" y="276" width="180" height="12" fill="#241d3a"/>
<rect x="564" y="276" width="12" height="12" fill="#1b1533"/>
<rect x="0" y="288" width="252" height="12" fill="#1b1533"/>
<rect x="252" y="288" width="24" height="12" fill="#5f239a"/>
<rect x="276" y="288" width="72" height="12" fill="#7B2FBE"/>
<rect x="348" y="288" width="24" height="12" fill="#5f239a"/>
<rect x="372" y="288" width="204" height="12" fill="#1b1533"/>
<rect x="0" y="300" width="252" height="12" fill="#1b1533"/>
<rect x="252" y="300" width="24" height="12" fill="#5f239a"/>
<rect x="276" y="300" width="72" height="12" fill="#7B2FBE"/>
<rect x="348" y="300" width="24" height="12" fill="#5f239a"/>
<rect x="372" y="300" width="204" height="12" fill="#1b1533"/>
<rect x="0" y="312" width="252" height="12" fill="#1b1533"/>
<rect x="252" y="312" width="24" height="12" fill="#5f239a"/>
<rect x="276" y="312" width="72" height="12" fill="#7B2FBE"/>
<rect x="348" y="312" width="24" height="12" fill="#5f239a"/>
<rect x="372" y="312" width="204" height="12" fill="#1b1533"/>
<rect x="0" y="324" width="576" height="12" fill="#1b1533"/>
<rect x="12" y="336" width="552" height="12" fill="#1b1533"/>
<rect x="24" y="348" width="528" height="12" fill="#1b1533"/>
</svg>